<svg width="156" height="156" viewBox="0 0 156 156" fill="none" xmlns="http://www.w3.org/2000/svg">
<path d="M70.4864 0.171062C65.4617 0.780551 62.5503 1.28065 58.9031 2.2027C45.4726 5.57835 33.2005 12.4859 23.245 22.2847C21.1006 24.3945 20.1614 25.426 17.9699 27.9733C15.5437 30.802 11.8182 36.2249 9.86154 39.7568C6.0891 46.6175 3.34979 53.7751 1.76881 61.011C1.67489 61.4329 1.53402 62.0736 1.45575 62.4175C1.33052 63.027 1.14268 64.0584 0.84527 65.8869C0.751354 66.387 0.626129 67.3872 0.53221 68.1217C0.43829 68.8562 0.281758 70.1533 0.187839 71.0128C-0.0626129 73.0601 -0.0626129 82.6246 0.187839 84.9217C0.767007 90.1415 1.12703 92.267 2.17579 96.5648C3.28718 101.081 4.3829 104.426 6.12041 108.52C7.09091 110.849 9.53285 115.693 10.6755 117.584C14.5575 124.023 18.1421 128.602 23.1981 133.603C35.1258 145.387 50.466 152.982 66.9645 155.295C71.5509 155.951 72.6936 156.013 78.078 155.998C85.3726 155.998 89.8186 155.482 96.3924 153.92C113.361 149.856 129.139 139.62 139.814 125.727C141.975 122.913 144.589 118.975 146.138 116.178C148.94 111.083 151.272 105.567 152.822 100.315C153.01 99.6746 153.229 98.9711 153.292 98.7527C153.573 97.9243 154.545 93.6265 154.842 91.9074C155.327 89.1259 155.452 88.2508 155.812 84.9217C156.062 82.6402 156.062 73.4352 155.812 71.0128C155.53 68.1998 154.951 64.3241 154.545 62.4175C154.122 60.4484 153.464 57.6822 153.292 57.1821C153.229 56.9632 153.01 56.26 152.822 55.6193C151.57 51.3216 150.036 47.4458 147.861 43.1168C146.076 39.5693 145.841 39.1629 143.915 36.0843C139.392 28.8797 133.506 22.3316 126.635 16.8461C124.052 14.7833 118.948 11.3451 116.193 9.79788C110.59 6.67232 104.454 4.17184 98.5054 2.57778C93.9346 1.34317 90.7257 0.749299 85.6697 0.217946C83.2751 -0.0477301 72.5214 -0.0789863 70.4864 0.171062ZM124.662 27.7702C124.287 28.0827 123.3 28.911 122.471 29.5986C121.641 30.3019 118.824 32.6461 116.193 34.8496C113.564 37.0376 108.18 41.5384 104.219 44.8359C100.259 48.1491 94.5922 52.8687 91.618 55.3535C88.6439 57.8385 80.0974 64.9805 72.5997 71.216C65.1174 77.4516 58.3552 83.0934 57.6039 83.7338L56.2264 84.8905L55.1463 84.1246C40.9488 74.1072 30.2107 66.5276 23.292 61.6361C18.5491 58.2761 14.4949 55.4317 14.2757 55.2911C14.0722 55.1504 13.9313 54.9941 13.9783 54.9472C14.0879 54.8379 124.662 27.2232 125.038 27.2076C125.273 27.1919 125.195 27.3325 124.662 27.7702ZM125.507 27.5201C125.476 27.6295 125.273 28.2858 125.069 28.9735C124.85 29.6611 124.412 31.0676 124.099 32.0991C123.786 33.1306 123.363 34.5058 123.16 35.1466C122.956 35.7873 122.533 37.1625 122.221 38.194C121.907 39.2255 121.485 40.6007 121.281 41.2415C121.078 41.8822 120.655 43.2575 120.342 44.2889C120.029 45.3204 119.606 46.6957 119.402 47.3364C119.2 47.9772 118.777 49.3525 118.463 50.3839C118.15 51.4153 117.728 52.7906 117.524 53.4313C117.321 54.0721 116.899 55.4474 116.585 56.4788C116.272 57.5102 115.849 58.8855 115.646 59.5262C115.442 60.167 115.02 61.5423 114.707 62.5737C114.394 63.6052 113.783 65.5431 113.376 66.8714C112.953 68.1998 112.296 70.3877 111.889 71.7162C111.498 73.0445 111.075 74.4198 110.95 74.7636C110.84 75.1074 110.418 76.4827 110.011 77.8111C109.62 79.1396 109.197 80.5147 109.071 80.8587C108.962 81.2027 108.539 82.5778 108.132 83.9062C107.726 85.2345 107.224 86.86 107.021 87.5004C106.489 89.2195 105.237 93.2357 104.971 94.1421C104.845 94.5641 104.579 95.4548 104.376 96.096C104.172 96.7364 103.499 98.9243 102.888 100.941C102.263 102.957 101.417 105.707 101.01 107.035C100.604 108.364 99.7581 111.114 99.1318 113.13C98.5054 115.147 97.6607 117.897 97.2535 119.225C96.8464 120.554 96.0008 123.304 95.3753 125.32C94.7489 127.337 93.7318 130.649 93.1055 132.666C92.4791 134.681 91.6336 137.432 91.2272 138.76C90.8201 140.089 90.3193 141.667 90.1313 142.277C89.9434 142.87 89.7242 143.605 89.6618 143.887C89.4582 144.855 89.8966 145.558 83.5567 134.072C80.3322 128.212 72.6309 114.35 65.7122 101.956C64.2722 99.3775 61.5798 94.5329 59.7327 91.1726L56.3516 85.0933L57.0403 84.4841C57.416 84.1402 64.6321 78.1232 73.0692 71.091C81.5061 64.0584 92.7451 54.6972 98.0359 50.2745C103.327 45.8517 111.686 38.8817 116.585 34.7871C121.501 30.6926 125.523 27.3325 125.539 27.3325C125.554 27.3325 125.554 27.4263 125.507 27.5201ZM29.8194 66.4807C38.1 72.3257 47.4136 78.9048 50.4973 81.0927L56.1168 85.0777L60.4527 92.8918C62.832 97.1896 68.1385 106.723 72.2396 114.068C76.3251 121.413 80.8642 129.571 82.3048 132.197C83.7447 134.822 85.5761 138.119 86.3749 139.542C87.1728 140.964 87.9707 142.433 88.1587 142.823L88.5035 143.527L87.9871 142.98C87.7048 142.667 86.0301 140.698 84.2611 138.604C82.4928 136.495 78.2036 131.4 74.7284 127.273C65.2426 116.037 55.8663 104.926 48.4311 96.096C44.7682 91.7514 40.5105 86.6876 38.9452 84.8437C37.3799 82.9998 33.6544 78.5608 30.649 74.998C27.6436 71.4348 24.0903 67.2152 22.7441 65.6212C21.398 64.0271 19.1439 61.3547 17.7351 59.6825C16.3263 58.0104 14.9958 56.4319 14.7766 56.1819C14.5575 55.9318 14.4479 55.7599 14.5575 55.7912C14.667 55.8224 21.5232 60.6359 29.8194 66.4807Z" fill="black"/>
</svg>
